<svg xmlns="http://www.w3.org/2000/svg" xmlns:xlink="http://www.w3.org/1999/xlink" width="60" zoomAndPan="magnify" viewBox="0 0 45 44.999999" height="60" preserveAspectRatio="xMidYMid meet" version="1.0"><defs><clipPath id="6c36196f21"><path d="M 22.5 0 C 10.074219 0 0 10.074219 0 22.5 C 0 34.925781 10.074219 45 22.5 45 C 34.925781 45 45 34.925781 45 22.5 C 45 10.074219 34.925781 0 22.5 0 Z M 22.5 0 " clip-rule="nonzero"/></clipPath><clipPath id="ab33c3f14c"><path d="M 10.386719 5.933594 L 34.386719 5.933594 L 34.386719 35.933594 L 10.386719 35.933594 Z M 10.386719 5.933594 " clip-rule="nonzero"/></clipPath></defs><g clip-path="url(#6c36196f21)"><path stroke-linecap="butt" transform="matrix(0.75, 0, 0, 0.75, 0.0000005, 0)" fill="none" stroke-linejoin="miter" d="M 29.999999 0 C 13.432291 0 -0.000000666667 13.432292 -0.000000666667 30 C -0.000000666667 46.567708 13.432291 60 29.999999 60 C 46.567708 60 59.999999 46.567708 59.999999 30 C 59.999999 13.432292 46.567708 0 29.999999 0 Z M 29.999999 0 " stroke="#545454" stroke-width="6" stroke-opacity="1" stroke-miterlimit="4"/></g><g clip-path="url(#ab33c3f14c)"><path fill="#545454" d="M 31.855469 36.011719 L 13.144531 36.011719 C 12.785156 36.011719 12.433594 35.945312 12.097656 35.8125 C 11.761719 35.675781 11.464844 35.480469 11.207031 35.226562 C 10.949219 34.972656 10.746094 34.679688 10.605469 34.347656 C 10.464844 34.011719 10.390625 33.664062 10.386719 33.304688 L 10.386719 18.222656 C 10.390625 17.859375 10.464844 17.511719 10.605469 17.179688 C 10.746094 16.847656 10.949219 16.550781 11.207031 16.300781 C 11.464844 16.046875 11.761719 15.851562 12.097656 15.714844 C 12.433594 15.578125 12.785156 15.511719 13.144531 15.515625 L 18.089844 15.515625 C 18.324219 15.515625 18.519531 15.597656 18.683594 15.761719 C 18.847656 15.925781 18.929688 16.125 18.929688 16.359375 C 18.929688 16.589844 18.847656 16.789062 18.683594 16.953125 C 18.519531 17.117188 18.324219 17.199219 18.089844 17.199219 L 13.144531 17.199219 C 13.007812 17.195312 12.871094 17.21875 12.742188 17.269531 C 12.613281 17.320312 12.496094 17.390625 12.394531 17.488281 C 12.292969 17.582031 12.214844 17.695312 12.160156 17.824219 C 12.101562 17.949219 12.070312 18.082031 12.066406 18.222656 L 12.066406 33.304688 C 12.070312 33.441406 12.101562 33.574219 12.160156 33.703125 C 12.214844 33.832031 12.292969 33.941406 12.394531 34.039062 C 12.496094 34.132812 12.613281 34.207031 12.742188 34.257812 C 12.871094 34.308594 13.007812 34.332031 13.144531 34.328125 L 31.855469 34.328125 C 31.996094 34.332031 32.128906 34.308594 32.257812 34.257812 C 32.390625 34.207031 32.503906 34.132812 32.605469 34.039062 C 32.707031 33.941406 32.785156 33.832031 32.84375 33.703125 C 32.898438 33.574219 32.929688 33.441406 32.933594 33.304688 L 32.933594 18.222656 C 32.929688 18.082031 32.898438 17.949219 32.84375 17.824219 C 32.785156 17.695312 32.707031 17.582031 32.605469 17.488281 C 32.503906 17.390625 32.390625 17.320312 32.257812 17.269531 C 32.128906 17.21875 31.996094 17.195312 31.855469 17.199219 L 26.542969 17.199219 C 26.3125 17.199219 26.113281 17.117188 25.949219 16.953125 C 25.785156 16.789062 25.703125 16.589844 25.703125 16.359375 C 25.703125 16.125 25.785156 15.925781 25.949219 15.761719 C 26.113281 15.597656 26.3125 15.515625 26.542969 15.515625 L 31.855469 15.515625 C 32.214844 15.515625 32.566406 15.582031 32.902344 15.71875 C 33.234375 15.851562 33.53125 16.046875 33.789062 16.300781 C 34.046875 16.554688 34.25 16.847656 34.390625 17.179688 C 34.53125 17.515625 34.605469 17.859375 34.609375 18.222656 L 34.609375 33.304688 C 34.605469 33.664062 34.53125 34.011719 34.390625 34.34375 C 34.25 34.679688 34.046875 34.972656 33.789062 35.226562 C 33.53125 35.476562 33.234375 35.671875 32.902344 35.808594 C 32.566406 35.945312 32.214844 36.011719 31.855469 36.011719 Z M 22.566406 25.832031 C 22.332031 25.832031 22.132812 25.75 21.96875 25.585938 C 21.804688 25.421875 21.722656 25.222656 21.722656 24.988281 L 21.722656 8.949219 L 17.617188 12.964844 C 17.453125 13.128906 17.253906 13.207031 17.019531 13.203125 C 16.789062 13.203125 16.589844 13.117188 16.429688 12.953125 C 16.265625 12.785156 16.1875 12.585938 16.1875 12.355469 C 16.191406 12.121094 16.277344 11.925781 16.441406 11.761719 L 22.105469 6.222656 C 22.15625 6.171875 22.214844 6.132812 22.273438 6.097656 C 22.410156 6.019531 22.558594 5.980469 22.714844 5.980469 C 22.84375 5.984375 22.96875 6.015625 23.082031 6.078125 C 23.152344 6.117188 23.214844 6.164062 23.273438 6.21875 L 28.828125 11.769531 C 28.988281 11.933594 29.066406 12.132812 29.066406 12.359375 C 29.0625 12.589844 28.980469 12.785156 28.820312 12.949219 C 28.65625 13.109375 28.460938 13.191406 28.230469 13.195312 C 28 13.195312 27.804688 13.117188 27.640625 12.957031 L 23.40625 8.722656 L 23.40625 24.988281 C 23.40625 25.222656 23.324219 25.421875 23.160156 25.585938 C 22.996094 25.75 22.796875 25.832031 22.566406 25.832031 Z M 22.566406 25.832031 " fill-opacity="1" fill-rule="nonzero"/></g></svg>
