<svg xmlns="http://www.w3.org/2000/svg" xmlns:xlink="http://www.w3.org/1999/xlink" width="60" zoomAndPan="magnify" viewBox="0 0 45 44.999999" height="60" preserveAspectRatio="xMidYMid meet" version="1.0"><defs><clipPath id="e38c9bebf1"><path d="M 2.550781 2.550781 L 42.300781 2.550781 L 42.300781 42.300781 L 2.550781 42.300781 Z M 2.550781 2.550781 " clip-rule="nonzero"/></clipPath></defs><g clip-path="url(#e38c9bebf1)"><path fill="#ffffff" d="M 38.699219 18.753906 L 26.234375 18.753906 L 26.234375 6.289062 C 26.234375 4.222656 24.5625 2.550781 22.496094 2.550781 C 20.429688 2.550781 18.753906 4.222656 18.753906 6.289062 L 18.753906 18.753906 L 6.289062 18.753906 C 4.222656 18.753906 2.550781 20.429688 2.550781 22.496094 C 2.550781 24.5625 4.222656 26.234375 6.289062 26.234375 L 18.753906 26.234375 L 18.753906 38.699219 C 18.753906 40.765625 20.429688 42.441406 22.496094 42.441406 C 24.5625 42.441406 26.234375 40.765625 26.234375 38.699219 L 26.234375 26.234375 L 38.699219 26.234375 C 40.765625 26.234375 42.441406 24.5625 42.441406 22.496094 C 42.441406 20.429688 40.765625 18.753906 38.699219 18.753906 Z M 38.699219 18.753906 " fill-opacity="1" fill-rule="nonzero"/></g></svg>