<svg xmlns="http://www.w3.org/2000/svg" xmlns:xlink="http://www.w3.org/1999/xlink" width="60" zoomAndPan="magnify" viewBox="0 0 45 44.999999" height="60" preserveAspectRatio="xMidYMid meet" version="1.0"><defs><clipPath id="1a99625ef8"><path d="M 22.5 0 C 10.074219 0 0 10.074219 0 22.5 C 0 34.925781 10.074219 45 22.5 45 C 34.925781 45 45 34.925781 45 22.5 C 45 10.074219 34.925781 0 22.5 0 Z M 22.5 0 " clip-rule="nonzero"/></clipPath><clipPath id="1c8150d448"><path d="M 15 7.207031 L 36.925781 7.207031 L 36.925781 30 L 15 30 Z M 15 7.207031 " clip-rule="nonzero"/></clipPath><clipPath id="ff8d4361d6"><path d="M 9.175781 28 L 19 28 L 19 37.957031 L 9.175781 37.957031 Z M 9.175781 28 " clip-rule="nonzero"/></clipPath></defs><g clip-path="url(#1a99625ef8)"><path stroke-linecap="butt" transform="matrix(0.75, 0, 0, 0.75, 0.0000005, 0)" fill="none" stroke-linejoin="miter" d="M 29.999999 0 C 13.432291 0 -0.000000666667 13.432292 -0.000000666667 30 C -0.000000666667 46.567708 13.432291 60 29.999999 60 C 46.567708 60 59.999999 46.567708 59.999999 30 C 59.999999 13.432292 46.567708 0 29.999999 0 Z M 29.999999 0 " stroke="#545454" stroke-width="6" stroke-opacity="1" stroke-miterlimit="4"/></g><g clip-path="url(#1c8150d448)"><path fill="#545454" d="M 26.042969 29.167969 C 25.628906 29.167969 25.21875 29.144531 24.808594 29.097656 C 24.398438 29.050781 23.992188 28.980469 23.589844 28.886719 C 23.1875 28.792969 22.789062 28.679688 22.402344 28.542969 C 22.011719 28.402344 21.632812 28.246094 21.261719 28.066406 C 20.890625 27.882812 20.53125 27.683594 20.179688 27.464844 C 19.832031 27.242188 19.496094 27.003906 19.175781 26.742188 C 18.855469 26.484375 18.546875 26.207031 18.257812 25.914062 C 17.96875 25.621094 17.695312 25.3125 17.4375 24.988281 C 17.183594 24.664062 16.945312 24.328125 16.730469 23.976562 C 16.511719 23.625 16.3125 23.265625 16.136719 22.890625 C 15.960938 22.519531 15.804688 22.136719 15.671875 21.746094 C 15.539062 21.355469 15.425781 20.957031 15.335938 20.554688 C 15.25 20.152344 15.183594 19.746094 15.140625 19.335938 C 15.097656 18.925781 15.078125 18.511719 15.078125 18.101562 C 15.082031 17.6875 15.109375 17.277344 15.160156 16.867188 C 15.210938 16.457031 15.28125 16.050781 15.378906 15.648438 C 15.472656 15.246094 15.589844 14.851562 15.730469 14.464844 C 15.871094 14.078125 16.03125 13.695312 16.214844 13.328125 C 16.398438 12.957031 16.601562 12.597656 16.824219 12.25 C 17.046875 11.902344 17.289062 11.570312 17.550781 11.25 C 17.8125 10.929688 18.089844 10.625 18.382812 10.339844 C 18.679688 10.050781 18.988281 9.777344 19.316406 9.523438 C 19.640625 9.269531 19.980469 9.035156 20.332031 8.820312 C 20.683594 8.605469 21.046875 8.410156 21.421875 8.238281 C 21.796875 8.0625 22.179688 7.910156 22.570312 7.777344 C 22.960938 7.648438 23.359375 7.539062 23.761719 7.453125 C 24.167969 7.367188 24.574219 7.304688 24.984375 7.261719 C 25.394531 7.222656 25.808594 7.207031 26.21875 7.210938 C 26.632812 7.21875 27.042969 7.246094 27.453125 7.300781 C 27.863281 7.351562 28.269531 7.425781 28.667969 7.523438 C 29.070312 7.625 29.464844 7.742188 29.851562 7.886719 C 30.238281 8.027344 30.617188 8.191406 30.984375 8.378906 C 31.355469 8.5625 31.710938 8.769531 32.058594 8.996094 C 32.402344 9.21875 32.734375 9.464844 33.054688 9.726562 C 33.371094 9.988281 33.671875 10.269531 33.960938 10.566406 C 34.246094 10.863281 34.515625 11.175781 34.765625 11.503906 C 35.019531 11.832031 35.25 12.171875 35.464844 12.527344 C 35.675781 12.878906 35.867188 13.242188 36.039062 13.617188 C 36.210938 13.992188 36.363281 14.378906 36.492188 14.769531 C 36.621094 15.164062 36.726562 15.5625 36.808594 15.964844 C 36.894531 16.367188 36.953125 16.777344 36.992188 17.1875 C 37.03125 17.597656 37.042969 18.011719 37.035156 18.421875 C 37.027344 18.835938 36.996094 19.246094 36.9375 19.65625 C 36.882812 20.066406 36.804688 20.46875 36.707031 20.871094 C 36.605469 21.269531 36.480469 21.664062 36.335938 22.050781 C 36.191406 22.4375 36.023438 22.8125 35.835938 23.179688 C 35.648438 23.546875 35.441406 23.90625 35.214844 24.25 C 34.984375 24.59375 34.738281 24.921875 34.472656 25.238281 C 33.429688 26.488281 32.171875 27.457031 30.695312 28.144531 C 29.222656 28.832031 27.667969 29.171875 26.042969 29.167969 Z M 26.066406 8.105469 C 25.765625 8.105469 25.464844 8.117188 25.160156 8.144531 C 23.828125 8.257812 22.570312 8.625 21.382812 9.242188 C 20.195312 9.863281 19.175781 10.6875 18.320312 11.714844 C 14.75 15.976562 15.316406 22.347656 19.578125 25.917969 C 19.886719 26.175781 20.210938 26.414062 20.550781 26.636719 C 20.886719 26.855469 21.238281 27.054688 21.597656 27.234375 C 21.960938 27.410156 22.332031 27.566406 22.714844 27.699219 C 23.09375 27.835938 23.480469 27.945312 23.875 28.03125 C 24.269531 28.117188 24.667969 28.179688 25.070312 28.222656 C 25.46875 28.261719 25.871094 28.273438 26.277344 28.265625 C 26.679688 28.257812 27.082031 28.222656 27.480469 28.167969 C 27.878906 28.109375 28.273438 28.027344 28.664062 27.925781 C 29.054688 27.820312 29.433594 27.691406 29.808594 27.542969 C 30.183594 27.390625 30.546875 27.21875 30.902344 27.023438 C 31.253906 26.832031 31.597656 26.617188 31.925781 26.382812 C 32.253906 26.144531 32.566406 25.890625 32.863281 25.621094 C 33.160156 25.347656 33.441406 25.058594 33.703125 24.75 C 33.964844 24.445312 34.207031 24.125 34.433594 23.789062 C 34.65625 23.453125 34.859375 23.105469 35.042969 22.746094 C 35.226562 22.386719 35.386719 22.015625 35.523438 21.636719 C 35.660156 21.257812 35.777344 20.871094 35.867188 20.480469 C 35.960938 20.085938 36.027344 19.691406 36.074219 19.289062 C 36.117188 18.886719 36.136719 18.484375 36.132812 18.082031 C 36.128906 17.679688 36.101562 17.277344 36.046875 16.878906 C 35.996094 16.476562 35.917969 16.082031 35.820312 15.691406 C 35.71875 15.300781 35.597656 14.917969 35.449219 14.539062 C 35.304688 14.164062 35.136719 13.796875 34.945312 13.441406 C 34.757812 13.085938 34.546875 12.742188 34.316406 12.410156 C 34.085938 12.082031 33.835938 11.765625 33.566406 11.464844 C 33.296875 11.164062 33.011719 10.878906 32.707031 10.613281 C 32.40625 10.347656 32.085938 10.101562 31.753906 9.871094 C 31.421875 9.644531 31.074219 9.4375 30.71875 9.25 C 30.359375 9.0625 29.992188 8.898438 29.617188 8.753906 C 29.238281 8.613281 28.855469 8.492188 28.460938 8.394531 C 28.070312 8.300781 27.675781 8.226562 27.273438 8.179688 C 26.875 8.128906 26.472656 8.105469 26.066406 8.105469 Z M 26.066406 8.105469 " fill-opacity="1" fill-rule="nonzero"/></g><path fill="#545454" d="M 16.339844 30.234375 C 16.148438 30.234375 16.011719 30.148438 15.933594 29.972656 C 15.851562 29.800781 15.871094 29.640625 15.996094 29.492188 L 18.941406 25.972656 C 19.023438 25.878906 19.125 25.824219 19.25 25.8125 C 19.371094 25.804688 19.484375 25.835938 19.578125 25.917969 C 19.671875 26 19.726562 26.101562 19.738281 26.226562 C 19.75 26.347656 19.714844 26.457031 19.632812 26.554688 L 16.6875 30.074219 C 16.597656 30.179688 16.480469 30.234375 16.339844 30.234375 Z M 16.339844 30.234375 " fill-opacity="1" fill-rule="nonzero"/><g clip-path="url(#ff8d4361d6)"><path fill="#545454" d="M 12.183594 37.792969 C 12.074219 37.792969 11.976562 37.757812 11.894531 37.6875 L 9.34375 35.550781 C 9.246094 35.472656 9.191406 35.367188 9.183594 35.246094 C 9.171875 35.121094 9.207031 35.007812 9.285156 34.914062 L 14.71875 28.425781 C 14.796875 28.328125 14.902344 28.277344 15.023438 28.265625 C 15.148438 28.253906 15.257812 28.289062 15.355469 28.367188 L 17.90625 30.503906 C 18 30.585938 18.054688 30.6875 18.066406 30.8125 C 18.078125 30.9375 18.042969 31.046875 17.964844 31.140625 L 12.53125 37.628906 C 12.449219 37.726562 12.347656 37.78125 12.222656 37.792969 C 12.210938 37.792969 12.195312 37.792969 12.183594 37.792969 Z M 10.269531 35.144531 L 12.128906 36.703125 L 16.980469 30.90625 L 15.121094 29.347656 Z M 10.269531 35.144531 " fill-opacity="1" fill-rule="nonzero"/></g><path fill="#545454" d="M 26.042969 26.707031 C 25.042969 26.707031 24.070312 26.539062 23.128906 26.195312 C 22.191406 25.855469 21.335938 25.359375 20.570312 24.714844 C 20.472656 24.636719 20.417969 24.535156 20.402344 24.410156 C 20.390625 24.28125 20.425781 24.171875 20.507812 24.074219 C 20.589844 23.976562 20.691406 23.925781 20.820312 23.914062 C 20.945312 23.90625 21.054688 23.941406 21.152344 24.023438 C 21.535156 24.34375 21.945312 24.625 22.382812 24.867188 C 22.824219 25.105469 23.28125 25.300781 23.757812 25.453125 C 24.234375 25.601562 24.722656 25.703125 25.21875 25.757812 C 25.71875 25.8125 26.214844 25.816406 26.710938 25.773438 C 27.210938 25.730469 27.699219 25.640625 28.179688 25.5 C 28.660156 25.359375 29.121094 25.175781 29.566406 24.945312 C 30.011719 24.714844 30.425781 24.441406 30.816406 24.128906 C 31.207031 23.816406 31.5625 23.46875 31.886719 23.085938 C 31.964844 22.988281 32.070312 22.933594 32.195312 22.917969 C 32.320312 22.90625 32.433594 22.941406 32.527344 23.023438 C 32.625 23.105469 32.679688 23.207031 32.6875 23.335938 C 32.699219 23.460938 32.660156 23.570312 32.578125 23.667969 C 31.769531 24.632812 30.792969 25.382812 29.648438 25.914062 C 28.503906 26.445312 27.304688 26.710938 26.042969 26.707031 Z M 26.042969 26.707031 " fill-opacity="1" fill-rule="nonzero"/><path fill="#545454" d="M 19.867188 13.449219 C 19.675781 13.449219 19.539062 13.363281 19.457031 13.1875 C 19.375 13.015625 19.398438 12.855469 19.519531 12.707031 C 20.394531 11.671875 21.453125 10.886719 22.699219 10.351562 C 23.945312 9.820312 25.246094 9.59375 26.597656 9.679688 C 26.722656 9.6875 26.828125 9.738281 26.910156 9.832031 C 26.992188 9.925781 27.027344 10.035156 27.019531 10.160156 C 27.011719 10.285156 26.960938 10.386719 26.867188 10.46875 C 26.773438 10.554688 26.664062 10.589844 26.539062 10.582031 C 25.332031 10.507812 24.171875 10.707031 23.058594 11.183594 C 21.941406 11.660156 20.996094 12.363281 20.214844 13.289062 C 20.125 13.398438 20.007812 13.449219 19.867188 13.449219 Z M 19.867188 13.449219 " fill-opacity="1" fill-rule="nonzero"/></svg>
